<mxfile host="app.diagrams.net" agent="Mozilla/5.0 (Windows NT 10.0; Win64; x64) AppleWebKit/537.36 (KHTML, like Gecko) Chrome/134.0.0.0 Safari/537.36 Edg/134.0.0.0" version="26.1.0">
  <diagram name="Page-1" id="dhbtuCO-wKXlIK6wz6un">
    <mxGraphModel dx="3050" dy="969" grid="1" gridSize="10" guides="1" tooltips="1" connect="1" arrows="1" fold="1" page="0" pageScale="1" pageWidth="850" pageHeight="1100" math="0" shadow="0">
      <root>
        <mxCell id="0" />
        <mxCell id="1" parent="0" />
        <mxCell id="nXu5jtZPFhVeZZOQe79Q-5" style="edgeStyle=orthogonalEdgeStyle;rounded=0;orthogonalLoop=1;jettySize=auto;html=1;exitX=0.5;exitY=1;exitDx=0;exitDy=0;entryX=0.5;entryY=0;entryDx=0;entryDy=0;" parent="1" source="nXu5jtZPFhVeZZOQe79Q-1" target="nXu5jtZPFhVeZZOQe79Q-3" edge="1">
          <mxGeometry relative="1" as="geometry" />
        </mxCell>
        <mxCell id="nXu5jtZPFhVeZZOQe79Q-1" value="START Q1" style="ellipse;whiteSpace=wrap;html=1;" parent="1" vertex="1">
          <mxGeometry x="-1746.8700000000001" y="-220" width="90" height="50" as="geometry" />
        </mxCell>
        <mxCell id="nXu5jtZPFhVeZZOQe79Q-2" value="Question 1" style="text;html=1;align=center;verticalAlign=middle;whiteSpace=wrap;rounded=0;fontStyle=5;fontSize=16;" parent="1" vertex="1">
          <mxGeometry x="-1755.6200000000001" y="-270" width="107.5" height="30" as="geometry" />
        </mxCell>
        <mxCell id="nXu5jtZPFhVeZZOQe79Q-6" style="edgeStyle=orthogonalEdgeStyle;rounded=0;orthogonalLoop=1;jettySize=auto;html=1;exitX=0.5;exitY=1;exitDx=0;exitDy=0;entryX=0.5;entryY=0;entryDx=0;entryDy=0;" parent="1" source="nXu5jtZPFhVeZZOQe79Q-3" target="nXu5jtZPFhVeZZOQe79Q-4" edge="1">
          <mxGeometry relative="1" as="geometry" />
        </mxCell>
        <mxCell id="nXu5jtZPFhVeZZOQe79Q-3" value="SET name = &quot;&quot; AS STRING&lt;div&gt;SET mark = 0 AS INTEGER&lt;/div&gt;" style="rounded=0;whiteSpace=wrap;html=1;" parent="1" vertex="1">
          <mxGeometry x="-1816.86" y="-140" width="230" height="50" as="geometry" />
        </mxCell>
        <mxCell id="nXu5jtZPFhVeZZOQe79Q-10" style="edgeStyle=orthogonalEdgeStyle;rounded=0;orthogonalLoop=1;jettySize=auto;html=1;exitX=0.5;exitY=1;exitDx=0;exitDy=0;entryX=0.5;entryY=0;entryDx=0;entryDy=0;" parent="1" source="nXu5jtZPFhVeZZOQe79Q-4" target="nXu5jtZPFhVeZZOQe79Q-8" edge="1">
          <mxGeometry relative="1" as="geometry" />
        </mxCell>
        <mxCell id="nXu5jtZPFhVeZZOQe79Q-4" value="&lt;div style=&quot;&quot;&gt;DISPLAY (&quot;Please enter your name: &quot;)&lt;/div&gt;&lt;div style=&quot;&quot;&gt;INPUT INTO name&lt;/div&gt;&lt;div style=&quot;&quot;&gt;DISPLAY (&quot;Please enter your marks: &quot;)&lt;/div&gt;&lt;div style=&quot;&quot;&gt;INPUT INTO mark&lt;/div&gt;" style="shape=parallelogram;perimeter=parallelogramPerimeter;whiteSpace=wrap;html=1;fixedSize=1;align=center;" parent="1" vertex="1">
          <mxGeometry x="-1859.99" y="-60" width="316.25" height="90" as="geometry" />
        </mxCell>
        <mxCell id="nXu5jtZPFhVeZZOQe79Q-12" value="TRUE" style="edgeStyle=orthogonalEdgeStyle;rounded=0;orthogonalLoop=1;jettySize=auto;html=1;exitX=1;exitY=0.5;exitDx=0;exitDy=0;entryX=0;entryY=0.5;entryDx=0;entryDy=0;" parent="1" source="nXu5jtZPFhVeZZOQe79Q-8" target="nXu5jtZPFhVeZZOQe79Q-11" edge="1">
          <mxGeometry relative="1" as="geometry" />
        </mxCell>
        <mxCell id="nXu5jtZPFhVeZZOQe79Q-15" value="FALSE" style="edgeStyle=orthogonalEdgeStyle;rounded=0;orthogonalLoop=1;jettySize=auto;html=1;exitX=0.5;exitY=1;exitDx=0;exitDy=0;entryX=0.5;entryY=0;entryDx=0;entryDy=0;" parent="1" source="nXu5jtZPFhVeZZOQe79Q-8" target="nXu5jtZPFhVeZZOQe79Q-14" edge="1">
          <mxGeometry relative="1" as="geometry" />
        </mxCell>
        <mxCell id="nXu5jtZPFhVeZZOQe79Q-8" value="mark &amp;gt;= 50" style="rhombus;whiteSpace=wrap;html=1;" parent="1" vertex="1">
          <mxGeometry x="-1753.74" y="80" width="103.74" height="80" as="geometry" />
        </mxCell>
        <mxCell id="nXu5jtZPFhVeZZOQe79Q-20" style="edgeStyle=orthogonalEdgeStyle;rounded=0;orthogonalLoop=1;jettySize=auto;html=1;exitX=1;exitY=0.5;exitDx=0;exitDy=0;entryX=1;entryY=0.5;entryDx=0;entryDy=0;" parent="1" source="nXu5jtZPFhVeZZOQe79Q-11" target="nXu5jtZPFhVeZZOQe79Q-17" edge="1">
          <mxGeometry relative="1" as="geometry">
            <Array as="points">
              <mxPoint x="-1229.99" y="120" />
              <mxPoint x="-1229.99" y="345" />
            </Array>
          </mxGeometry>
        </mxCell>
        <mxCell id="nXu5jtZPFhVeZZOQe79Q-11" value="&lt;div style=&quot;&quot;&gt;DISPLAY (name + &quot;, you have passed the module.&quot;)&lt;/div&gt;" style="shape=parallelogram;perimeter=parallelogramPerimeter;whiteSpace=wrap;html=1;fixedSize=1;align=center;" parent="1" vertex="1">
          <mxGeometry x="-1586.86" y="92.5" width="316.25" height="55" as="geometry" />
        </mxCell>
        <mxCell id="nXu5jtZPFhVeZZOQe79Q-19" style="edgeStyle=orthogonalEdgeStyle;rounded=0;orthogonalLoop=1;jettySize=auto;html=1;exitX=0.5;exitY=1;exitDx=0;exitDy=0;entryX=0.5;entryY=0;entryDx=0;entryDy=0;" parent="1" source="nXu5jtZPFhVeZZOQe79Q-14" target="nXu5jtZPFhVeZZOQe79Q-17" edge="1">
          <mxGeometry relative="1" as="geometry" />
        </mxCell>
        <mxCell id="nXu5jtZPFhVeZZOQe79Q-14" value="&lt;div style=&quot;&quot;&gt;DISPLAY (name + &quot;, you have failed the module.&quot;)&lt;/div&gt;" style="shape=parallelogram;perimeter=parallelogramPerimeter;whiteSpace=wrap;html=1;fixedSize=1;align=center;" parent="1" vertex="1">
          <mxGeometry x="-1859.9999999999998" y="210" width="316.25" height="55" as="geometry" />
        </mxCell>
        <mxCell id="nXu5jtZPFhVeZZOQe79Q-17" value="END Q1" style="ellipse;whiteSpace=wrap;html=1;" parent="1" vertex="1">
          <mxGeometry x="-1746.8700000000001" y="320" width="90" height="50" as="geometry" />
        </mxCell>
        <mxCell id="nXu5jtZPFhVeZZOQe79Q-27" style="edgeStyle=orthogonalEdgeStyle;rounded=0;orthogonalLoop=1;jettySize=auto;html=1;exitX=0.5;exitY=1;exitDx=0;exitDy=0;entryX=0.5;entryY=0;entryDx=0;entryDy=0;" parent="1" source="nXu5jtZPFhVeZZOQe79Q-21" target="nXu5jtZPFhVeZZOQe79Q-23" edge="1">
          <mxGeometry relative="1" as="geometry" />
        </mxCell>
        <mxCell id="nXu5jtZPFhVeZZOQe79Q-21" value="START Q2" style="ellipse;whiteSpace=wrap;html=1;" parent="1" vertex="1">
          <mxGeometry x="-1026.88" y="-220" width="90" height="50" as="geometry" />
        </mxCell>
        <mxCell id="nXu5jtZPFhVeZZOQe79Q-22" value="Question 2" style="text;html=1;align=center;verticalAlign=middle;whiteSpace=wrap;rounded=0;fontStyle=5;fontSize=16;" parent="1" vertex="1">
          <mxGeometry x="-1035.63" y="-270" width="107.5" height="30" as="geometry" />
        </mxCell>
        <mxCell id="nXu5jtZPFhVeZZOQe79Q-28" style="edgeStyle=orthogonalEdgeStyle;rounded=0;orthogonalLoop=1;jettySize=auto;html=1;exitX=0.5;exitY=1;exitDx=0;exitDy=0;entryX=0.5;entryY=0;entryDx=0;entryDy=0;" parent="1" source="nXu5jtZPFhVeZZOQe79Q-23" target="nXu5jtZPFhVeZZOQe79Q-24" edge="1">
          <mxGeometry relative="1" as="geometry" />
        </mxCell>
        <mxCell id="nXu5jtZPFhVeZZOQe79Q-23" value="SET&lt;span style=&quot;white-space:pre&quot;&gt;&#x9;&lt;/span&gt;mark = 0, valid_status = 1 AS INTEGER&lt;div&gt;SET&lt;span style=&quot;white-space:pre&quot;&gt;&#x9;&lt;/span&gt;grade = &quot;&quot;, mark_status = &quot;Pass&quot; AS STRING&lt;/div&gt;" style="rounded=0;whiteSpace=wrap;html=1;" parent="1" vertex="1">
          <mxGeometry x="-1125.32" y="-140" width="286.87" height="50" as="geometry" />
        </mxCell>
        <mxCell id="nXu5jtZPFhVeZZOQe79Q-31" style="edgeStyle=orthogonalEdgeStyle;rounded=0;orthogonalLoop=1;jettySize=auto;html=1;exitX=0.5;exitY=1;exitDx=0;exitDy=0;entryX=0.5;entryY=0;entryDx=0;entryDy=0;" parent="1" source="nXu5jtZPFhVeZZOQe79Q-24" target="nXu5jtZPFhVeZZOQe79Q-30" edge="1">
          <mxGeometry relative="1" as="geometry" />
        </mxCell>
        <mxCell id="nXu5jtZPFhVeZZOQe79Q-24" value="&lt;div style=&quot;&quot;&gt;DISPLAY (&quot;Enter your marks: &quot;)&lt;/div&gt;&lt;div style=&quot;&quot;&gt;INPUT INTO mark&lt;/div&gt;" style="shape=parallelogram;perimeter=parallelogramPerimeter;whiteSpace=wrap;html=1;fixedSize=1;align=center;" parent="1" vertex="1">
          <mxGeometry x="-1111.88" y="-60" width="260" height="70" as="geometry" />
        </mxCell>
        <mxCell id="nXu5jtZPFhVeZZOQe79Q-37" value="FALSE" style="edgeStyle=orthogonalEdgeStyle;rounded=0;orthogonalLoop=1;jettySize=auto;html=1;exitX=0.5;exitY=1;exitDx=0;exitDy=0;entryX=0.5;entryY=0;entryDx=0;entryDy=0;" parent="1" source="nXu5jtZPFhVeZZOQe79Q-30" target="nXu5jtZPFhVeZZOQe79Q-32" edge="1">
          <mxGeometry relative="1" as="geometry" />
        </mxCell>
        <mxCell id="nXu5jtZPFhVeZZOQe79Q-44" value="TRUE" style="edgeStyle=orthogonalEdgeStyle;rounded=0;orthogonalLoop=1;jettySize=auto;html=1;exitX=1;exitY=0.5;exitDx=0;exitDy=0;entryX=0;entryY=0.5;entryDx=0;entryDy=0;" parent="1" source="nXu5jtZPFhVeZZOQe79Q-30" target="nXu5jtZPFhVeZZOQe79Q-43" edge="1">
          <mxGeometry relative="1" as="geometry" />
        </mxCell>
        <mxCell id="nXu5jtZPFhVeZZOQe79Q-30" value="0 &amp;lt;= mark &amp;lt;= 49" style="rhombus;whiteSpace=wrap;html=1;" parent="1" vertex="1">
          <mxGeometry x="-1042.1899999999998" y="60" width="120.62" height="80" as="geometry" />
        </mxCell>
        <mxCell id="nXu5jtZPFhVeZZOQe79Q-38" value="FALSE" style="edgeStyle=orthogonalEdgeStyle;rounded=0;orthogonalLoop=1;jettySize=auto;html=1;exitX=0.5;exitY=1;exitDx=0;exitDy=0;entryX=0.5;entryY=0;entryDx=0;entryDy=0;" parent="1" source="nXu5jtZPFhVeZZOQe79Q-32" target="nXu5jtZPFhVeZZOQe79Q-33" edge="1">
          <mxGeometry relative="1" as="geometry" />
        </mxCell>
        <mxCell id="nXu5jtZPFhVeZZOQe79Q-46" value="TRUE" style="edgeStyle=orthogonalEdgeStyle;rounded=0;orthogonalLoop=1;jettySize=auto;html=1;exitX=1;exitY=0.5;exitDx=0;exitDy=0;entryX=0;entryY=0.5;entryDx=0;entryDy=0;" parent="1" source="nXu5jtZPFhVeZZOQe79Q-32" target="nXu5jtZPFhVeZZOQe79Q-45" edge="1">
          <mxGeometry relative="1" as="geometry" />
        </mxCell>
        <mxCell id="nXu5jtZPFhVeZZOQe79Q-32" value="50 &amp;lt;= mark &amp;lt;= 59" style="rhombus;whiteSpace=wrap;html=1;" parent="1" vertex="1">
          <mxGeometry x="-1042.1999999999998" y="185" width="120.62" height="80" as="geometry" />
        </mxCell>
        <mxCell id="nXu5jtZPFhVeZZOQe79Q-39" value="FALSE" style="edgeStyle=orthogonalEdgeStyle;rounded=0;orthogonalLoop=1;jettySize=auto;html=1;exitX=0.5;exitY=1;exitDx=0;exitDy=0;entryX=0.5;entryY=0;entryDx=0;entryDy=0;" parent="1" source="nXu5jtZPFhVeZZOQe79Q-33" target="nXu5jtZPFhVeZZOQe79Q-34" edge="1">
          <mxGeometry relative="1" as="geometry" />
        </mxCell>
        <mxCell id="nXu5jtZPFhVeZZOQe79Q-50" value="TRUE" style="edgeStyle=orthogonalEdgeStyle;rounded=0;orthogonalLoop=1;jettySize=auto;html=1;exitX=1;exitY=0.5;exitDx=0;exitDy=0;entryX=0;entryY=0.5;entryDx=0;entryDy=0;" parent="1" source="nXu5jtZPFhVeZZOQe79Q-33" target="nXu5jtZPFhVeZZOQe79Q-47" edge="1">
          <mxGeometry relative="1" as="geometry" />
        </mxCell>
        <mxCell id="nXu5jtZPFhVeZZOQe79Q-33" value="60 &amp;lt;= mark &amp;lt;= 69" style="rhombus;whiteSpace=wrap;html=1;" parent="1" vertex="1">
          <mxGeometry x="-1042.1999999999998" y="310" width="120.62" height="80" as="geometry" />
        </mxCell>
        <mxCell id="nXu5jtZPFhVeZZOQe79Q-41" value="FALSE" style="edgeStyle=orthogonalEdgeStyle;rounded=0;orthogonalLoop=1;jettySize=auto;html=1;exitX=0.5;exitY=1;exitDx=0;exitDy=0;entryX=0.5;entryY=0;entryDx=0;entryDy=0;" parent="1" source="nXu5jtZPFhVeZZOQe79Q-34" target="nXu5jtZPFhVeZZOQe79Q-35" edge="1">
          <mxGeometry relative="1" as="geometry" />
        </mxCell>
        <mxCell id="nXu5jtZPFhVeZZOQe79Q-52" value="TRUE" style="edgeStyle=orthogonalEdgeStyle;rounded=0;orthogonalLoop=1;jettySize=auto;html=1;exitX=1;exitY=0.5;exitDx=0;exitDy=0;entryX=0;entryY=0.5;entryDx=0;entryDy=0;" parent="1" source="nXu5jtZPFhVeZZOQe79Q-34" target="nXu5jtZPFhVeZZOQe79Q-48" edge="1">
          <mxGeometry relative="1" as="geometry" />
        </mxCell>
        <mxCell id="nXu5jtZPFhVeZZOQe79Q-34" value="70 &amp;lt;= mark &amp;lt;= 79" style="rhombus;whiteSpace=wrap;html=1;" parent="1" vertex="1">
          <mxGeometry x="-1042.1999999999998" y="440" width="120.62" height="80" as="geometry" />
        </mxCell>
        <mxCell id="nXu5jtZPFhVeZZOQe79Q-42" value="FALSE" style="edgeStyle=orthogonalEdgeStyle;rounded=0;orthogonalLoop=1;jettySize=auto;html=1;exitX=0.5;exitY=1;exitDx=0;exitDy=0;entryX=0.5;entryY=0;entryDx=0;entryDy=0;" parent="1" source="nXu5jtZPFhVeZZOQe79Q-35" edge="1">
          <mxGeometry relative="1" as="geometry">
            <mxPoint x="-981.8899999999996" y="700" as="targetPoint" />
          </mxGeometry>
        </mxCell>
        <mxCell id="nXu5jtZPFhVeZZOQe79Q-53" value="TRUE" style="edgeStyle=orthogonalEdgeStyle;rounded=0;orthogonalLoop=1;jettySize=auto;html=1;exitX=1;exitY=0.5;exitDx=0;exitDy=0;entryX=0;entryY=0.5;entryDx=0;entryDy=0;" parent="1" source="nXu5jtZPFhVeZZOQe79Q-35" target="nXu5jtZPFhVeZZOQe79Q-49" edge="1">
          <mxGeometry relative="1" as="geometry" />
        </mxCell>
        <mxCell id="nXu5jtZPFhVeZZOQe79Q-35" value="80 &amp;lt;= mark &amp;lt;= 100" style="rhombus;whiteSpace=wrap;html=1;" parent="1" vertex="1">
          <mxGeometry x="-1042.1999999999998" y="570" width="120.62" height="80" as="geometry" />
        </mxCell>
        <mxCell id="nXu5jtZPFhVeZZOQe79Q-60" style="edgeStyle=orthogonalEdgeStyle;rounded=0;orthogonalLoop=1;jettySize=auto;html=1;exitX=1;exitY=0.5;exitDx=0;exitDy=0;entryX=1;entryY=0.5;entryDx=0;entryDy=0;" parent="1" source="nXu5jtZPFhVeZZOQe79Q-43" target="nXu5jtZPFhVeZZOQe79Q-58" edge="1">
          <mxGeometry relative="1" as="geometry">
            <Array as="points">
              <mxPoint x="-600" y="100" />
              <mxPoint x="-600" y="800" />
            </Array>
          </mxGeometry>
        </mxCell>
        <mxCell id="nXu5jtZPFhVeZZOQe79Q-43" value="grade = &quot;F&quot;&lt;div&gt;mark_status = &quot;Fail&quot;&lt;/div&gt;" style="rounded=0;whiteSpace=wrap;html=1;" parent="1" vertex="1">
          <mxGeometry x="-820" y="75" width="171.88" height="50" as="geometry" />
        </mxCell>
        <mxCell id="nXu5jtZPFhVeZZOQe79Q-70" style="edgeStyle=orthogonalEdgeStyle;rounded=0;orthogonalLoop=1;jettySize=auto;html=1;exitX=1;exitY=0.5;exitDx=0;exitDy=0;" parent="1" source="nXu5jtZPFhVeZZOQe79Q-45" edge="1">
          <mxGeometry relative="1" as="geometry">
            <mxPoint x="-600" y="225.16666666666674" as="targetPoint" />
          </mxGeometry>
        </mxCell>
        <mxCell id="nXu5jtZPFhVeZZOQe79Q-45" value="grade = &quot;D&quot;" style="rounded=0;whiteSpace=wrap;html=1;" parent="1" vertex="1">
          <mxGeometry x="-820" y="200" width="171.88" height="50" as="geometry" />
        </mxCell>
        <mxCell id="nXu5jtZPFhVeZZOQe79Q-71" style="edgeStyle=orthogonalEdgeStyle;rounded=0;orthogonalLoop=1;jettySize=auto;html=1;exitX=1;exitY=0.5;exitDx=0;exitDy=0;" parent="1" source="nXu5jtZPFhVeZZOQe79Q-47" edge="1">
          <mxGeometry relative="1" as="geometry">
            <mxPoint x="-600" y="350.16666666666674" as="targetPoint" />
          </mxGeometry>
        </mxCell>
        <mxCell id="nXu5jtZPFhVeZZOQe79Q-47" value="grade = &quot;C&quot;" style="rounded=0;whiteSpace=wrap;html=1;" parent="1" vertex="1">
          <mxGeometry x="-820" y="325" width="171.88" height="50" as="geometry" />
        </mxCell>
        <mxCell id="nXu5jtZPFhVeZZOQe79Q-72" style="edgeStyle=orthogonalEdgeStyle;rounded=0;orthogonalLoop=1;jettySize=auto;html=1;exitX=1;exitY=0.5;exitDx=0;exitDy=0;" parent="1" source="nXu5jtZPFhVeZZOQe79Q-48" edge="1">
          <mxGeometry relative="1" as="geometry">
            <mxPoint x="-600" y="480.16666666666674" as="targetPoint" />
          </mxGeometry>
        </mxCell>
        <mxCell id="nXu5jtZPFhVeZZOQe79Q-48" value="grade = &quot;B&quot;" style="rounded=0;whiteSpace=wrap;html=1;" parent="1" vertex="1">
          <mxGeometry x="-820" y="455" width="171.88" height="50" as="geometry" />
        </mxCell>
        <mxCell id="nXu5jtZPFhVeZZOQe79Q-73" style="edgeStyle=orthogonalEdgeStyle;rounded=0;orthogonalLoop=1;jettySize=auto;html=1;exitX=1;exitY=0.5;exitDx=0;exitDy=0;" parent="1" source="nXu5jtZPFhVeZZOQe79Q-49" edge="1">
          <mxGeometry relative="1" as="geometry">
            <mxPoint x="-600" y="610.1666666666667" as="targetPoint" />
          </mxGeometry>
        </mxCell>
        <mxCell id="nXu5jtZPFhVeZZOQe79Q-49" value="grade = &quot;A&quot;" style="rounded=0;whiteSpace=wrap;html=1;" parent="1" vertex="1">
          <mxGeometry x="-820" y="585" width="171.88" height="50" as="geometry" />
        </mxCell>
        <mxCell id="nXu5jtZPFhVeZZOQe79Q-59" style="edgeStyle=orthogonalEdgeStyle;rounded=0;orthogonalLoop=1;jettySize=auto;html=1;exitX=0.5;exitY=1;exitDx=0;exitDy=0;entryX=0.5;entryY=0;entryDx=0;entryDy=0;" parent="1" source="nXu5jtZPFhVeZZOQe79Q-56" target="nXu5jtZPFhVeZZOQe79Q-58" edge="1">
          <mxGeometry relative="1" as="geometry" />
        </mxCell>
        <mxCell id="nXu5jtZPFhVeZZOQe79Q-56" value="&lt;span style=&quot;text-align: left;&quot;&gt;valid_status = 0&lt;/span&gt;" style="rounded=0;whiteSpace=wrap;html=1;" parent="1" vertex="1">
          <mxGeometry x="-1067.82" y="700" width="171.88" height="50" as="geometry" />
        </mxCell>
        <mxCell id="nXu5jtZPFhVeZZOQe79Q-64" value="TRUE" style="edgeStyle=orthogonalEdgeStyle;rounded=0;orthogonalLoop=1;jettySize=auto;html=1;exitX=1;exitY=0.5;exitDx=0;exitDy=0;entryX=0;entryY=0.5;entryDx=0;entryDy=0;" parent="1" source="nXu5jtZPFhVeZZOQe79Q-57" target="nXu5jtZPFhVeZZOQe79Q-63" edge="1">
          <mxGeometry relative="1" as="geometry" />
        </mxCell>
        <mxCell id="nXu5jtZPFhVeZZOQe79Q-66" value="FALSE" style="edgeStyle=orthogonalEdgeStyle;rounded=0;orthogonalLoop=1;jettySize=auto;html=1;exitX=0.5;exitY=1;exitDx=0;exitDy=0;entryX=0.5;entryY=0;entryDx=0;entryDy=0;" parent="1" source="nXu5jtZPFhVeZZOQe79Q-57" target="nXu5jtZPFhVeZZOQe79Q-65" edge="1">
          <mxGeometry relative="1" as="geometry" />
        </mxCell>
        <mxCell id="nXu5jtZPFhVeZZOQe79Q-57" value="&lt;span style=&quot;text-align: left;&quot;&gt;valid_status == 1&lt;/span&gt;" style="rhombus;whiteSpace=wrap;html=1;" parent="1" vertex="1">
          <mxGeometry x="-1042.1899999999998" y="850" width="120.62" height="80" as="geometry" />
        </mxCell>
        <mxCell id="nXu5jtZPFhVeZZOQe79Q-61" style="edgeStyle=orthogonalEdgeStyle;rounded=0;orthogonalLoop=1;jettySize=auto;html=1;exitX=0.5;exitY=1;exitDx=0;exitDy=0;entryX=0.5;entryY=0;entryDx=0;entryDy=0;" parent="1" source="nXu5jtZPFhVeZZOQe79Q-58" target="nXu5jtZPFhVeZZOQe79Q-57" edge="1">
          <mxGeometry relative="1" as="geometry" />
        </mxCell>
        <mxCell id="nXu5jtZPFhVeZZOQe79Q-58" value="" style="ellipse;whiteSpace=wrap;html=1;aspect=fixed;" parent="1" vertex="1">
          <mxGeometry x="-991.89" y="790" width="20" height="20" as="geometry" />
        </mxCell>
        <mxCell id="nXu5jtZPFhVeZZOQe79Q-69" style="edgeStyle=orthogonalEdgeStyle;rounded=0;orthogonalLoop=1;jettySize=auto;html=1;exitX=1;exitY=0.5;exitDx=0;exitDy=0;entryX=1;entryY=0.5;entryDx=0;entryDy=0;" parent="1" source="nXu5jtZPFhVeZZOQe79Q-63" target="nXu5jtZPFhVeZZOQe79Q-67" edge="1">
          <mxGeometry relative="1" as="geometry">
            <Array as="points">
              <mxPoint x="-540" y="890" />
              <mxPoint x="-540" y="1135" />
            </Array>
          </mxGeometry>
        </mxCell>
        <mxCell id="nXu5jtZPFhVeZZOQe79Q-63" value="&lt;div style=&quot;&quot;&gt;&lt;span style=&quot;text-align: left;&quot;&gt;DISPLAY (&quot;Your grade is: &quot; + grade)&lt;/span&gt;&lt;/div&gt;&lt;div style=&quot;&quot;&gt;&lt;span style=&quot;text-align: left;&quot;&gt;DISPLAY (&quot;Your status is: &quot; + mark_status)&lt;/span&gt;&lt;/div&gt;" style="shape=parallelogram;perimeter=parallelogramPerimeter;whiteSpace=wrap;html=1;fixedSize=1;align=center;" parent="1" vertex="1">
          <mxGeometry x="-840.0000000000001" y="855" width="260" height="70" as="geometry" />
        </mxCell>
        <mxCell id="nXu5jtZPFhVeZZOQe79Q-68" style="edgeStyle=orthogonalEdgeStyle;rounded=0;orthogonalLoop=1;jettySize=auto;html=1;exitX=0.5;exitY=1;exitDx=0;exitDy=0;entryX=0.5;entryY=0;entryDx=0;entryDy=0;" parent="1" source="nXu5jtZPFhVeZZOQe79Q-65" target="nXu5jtZPFhVeZZOQe79Q-67" edge="1">
          <mxGeometry relative="1" as="geometry" />
        </mxCell>
        <mxCell id="nXu5jtZPFhVeZZOQe79Q-65" value="&lt;div style=&quot;text-align: left;&quot;&gt;DISPLAY (&quot;Invalid Entry&quot;)&lt;/div&gt;" style="shape=parallelogram;perimeter=parallelogramPerimeter;whiteSpace=wrap;html=1;fixedSize=1;align=center;" parent="1" vertex="1">
          <mxGeometry x="-1077.8200000000002" y="980" width="191.88" height="60" as="geometry" />
        </mxCell>
        <mxCell id="nXu5jtZPFhVeZZOQe79Q-67" value="END Q2" style="ellipse;whiteSpace=wrap;html=1;" parent="1" vertex="1">
          <mxGeometry x="-1026.89" y="1110" width="90" height="50" as="geometry" />
        </mxCell>
        <mxCell id="Wvk4Kf5FQrX0i5HWt4zA-7" style="edgeStyle=orthogonalEdgeStyle;rounded=0;orthogonalLoop=1;jettySize=auto;html=1;exitX=0.5;exitY=1;exitDx=0;exitDy=0;entryX=0.5;entryY=0;entryDx=0;entryDy=0;" edge="1" parent="1" source="Wvk4Kf5FQrX0i5HWt4zA-1" target="Wvk4Kf5FQrX0i5HWt4zA-3">
          <mxGeometry relative="1" as="geometry" />
        </mxCell>
        <mxCell id="Wvk4Kf5FQrX0i5HWt4zA-1" value="START Q5" style="ellipse;whiteSpace=wrap;html=1;" vertex="1" parent="1">
          <mxGeometry x="-375.00000000000006" y="-220" width="90" height="50" as="geometry" />
        </mxCell>
        <mxCell id="Wvk4Kf5FQrX0i5HWt4zA-2" value="Question 5" style="text;html=1;align=center;verticalAlign=middle;whiteSpace=wrap;rounded=0;fontStyle=5;fontSize=16;" vertex="1" parent="1">
          <mxGeometry x="-378.2900000000001" y="-270" width="107.5" height="30" as="geometry" />
        </mxCell>
        <mxCell id="Wvk4Kf5FQrX0i5HWt4zA-6" style="edgeStyle=orthogonalEdgeStyle;rounded=0;orthogonalLoop=1;jettySize=auto;html=1;exitX=0.5;exitY=1;exitDx=0;exitDy=0;entryX=0.5;entryY=0;entryDx=0;entryDy=0;" edge="1" parent="1" source="Wvk4Kf5FQrX0i5HWt4zA-3" target="Wvk4Kf5FQrX0i5HWt4zA-5">
          <mxGeometry relative="1" as="geometry" />
        </mxCell>
        <mxCell id="Wvk4Kf5FQrX0i5HWt4zA-3" value="SET i = 0,&amp;nbsp;&lt;div&gt;&lt;span style=&quot;background-color: transparent; color: light-dark(rgb(0, 0, 0), rgb(255, 255, 255));&quot;&gt;result = 0 AS INTEGER&lt;/span&gt;&lt;/div&gt;" style="rounded=0;whiteSpace=wrap;html=1;" vertex="1" parent="1">
          <mxGeometry x="-420" y="-140" width="180" height="50" as="geometry" />
        </mxCell>
        <mxCell id="Wvk4Kf5FQrX0i5HWt4zA-13" value="TRUE" style="edgeStyle=orthogonalEdgeStyle;rounded=0;orthogonalLoop=1;jettySize=auto;html=1;exitX=1;exitY=0.5;exitDx=0;exitDy=0;entryX=0;entryY=0.5;entryDx=0;entryDy=0;" edge="1" parent="1" source="Wvk4Kf5FQrX0i5HWt4zA-5" target="Wvk4Kf5FQrX0i5HWt4zA-8">
          <mxGeometry relative="1" as="geometry" />
        </mxCell>
        <mxCell id="Wvk4Kf5FQrX0i5HWt4zA-15" value="FALSE" style="edgeStyle=orthogonalEdgeStyle;rounded=0;orthogonalLoop=1;jettySize=auto;html=1;entryX=0.5;entryY=0;entryDx=0;entryDy=0;" edge="1" parent="1" target="Wvk4Kf5FQrX0i5HWt4zA-14">
          <mxGeometry relative="1" as="geometry">
            <mxPoint x="-380" y="-10" as="sourcePoint" />
          </mxGeometry>
        </mxCell>
        <mxCell id="Wvk4Kf5FQrX0i5HWt4zA-5" value="i &amp;lt;= 9" style="rhombus;whiteSpace=wrap;html=1;" vertex="1" parent="1">
          <mxGeometry x="-378.29" y="-50" width="96.56" height="80" as="geometry" />
        </mxCell>
        <mxCell id="Wvk4Kf5FQrX0i5HWt4zA-12" style="edgeStyle=orthogonalEdgeStyle;rounded=0;orthogonalLoop=1;jettySize=auto;html=1;exitX=0.5;exitY=1;exitDx=0;exitDy=0;entryX=0.5;entryY=0;entryDx=0;entryDy=0;" edge="1" parent="1" source="Wvk4Kf5FQrX0i5HWt4zA-8" target="Wvk4Kf5FQrX0i5HWt4zA-11">
          <mxGeometry relative="1" as="geometry" />
        </mxCell>
        <mxCell id="Wvk4Kf5FQrX0i5HWt4zA-8" value="i += 1&lt;div&gt;result = 7 * i&lt;/div&gt;" style="rounded=0;whiteSpace=wrap;html=1;" vertex="1" parent="1">
          <mxGeometry x="-200" y="-35" width="180" height="50" as="geometry" />
        </mxCell>
        <mxCell id="Wvk4Kf5FQrX0i5HWt4zA-36" style="edgeStyle=orthogonalEdgeStyle;rounded=0;orthogonalLoop=1;jettySize=auto;html=1;exitX=0;exitY=0.5;exitDx=0;exitDy=0;entryX=0.5;entryY=1;entryDx=0;entryDy=0;" edge="1" parent="1" source="Wvk4Kf5FQrX0i5HWt4zA-11" target="Wvk4Kf5FQrX0i5HWt4zA-5">
          <mxGeometry relative="1" as="geometry" />
        </mxCell>
        <mxCell id="Wvk4Kf5FQrX0i5HWt4zA-11" value="&lt;div style=&quot;&quot;&gt;DISPLAY (&quot;7 x &quot; + i + &quot;=&quot; + result&quot;)&lt;/div&gt;" style="shape=parallelogram;perimeter=parallelogramPerimeter;whiteSpace=wrap;html=1;fixedSize=1;align=center;" vertex="1" parent="1">
          <mxGeometry x="-240" y="60" width="260" height="60" as="geometry" />
        </mxCell>
        <mxCell id="Wvk4Kf5FQrX0i5HWt4zA-14" value="END Q5" style="ellipse;whiteSpace=wrap;html=1;" vertex="1" parent="1">
          <mxGeometry x="-500.00000000000006" y="60" width="90" height="50" as="geometry" />
        </mxCell>
        <mxCell id="Wvk4Kf5FQrX0i5HWt4zA-26" style="edgeStyle=orthogonalEdgeStyle;rounded=0;orthogonalLoop=1;jettySize=auto;html=1;exitX=0.5;exitY=1;exitDx=0;exitDy=0;entryX=0.5;entryY=0;entryDx=0;entryDy=0;" edge="1" parent="1" source="Wvk4Kf5FQrX0i5HWt4zA-23" target="Wvk4Kf5FQrX0i5HWt4zA-24">
          <mxGeometry relative="1" as="geometry" />
        </mxCell>
        <mxCell id="Wvk4Kf5FQrX0i5HWt4zA-23" value="START Q5" style="ellipse;whiteSpace=wrap;html=1;" vertex="1" parent="1">
          <mxGeometry x="-315.00000000000006" y="200" width="90" height="50" as="geometry" />
        </mxCell>
        <mxCell id="Wvk4Kf5FQrX0i5HWt4zA-27" style="edgeStyle=orthogonalEdgeStyle;rounded=0;orthogonalLoop=1;jettySize=auto;html=1;exitX=0.5;exitY=1;exitDx=0;exitDy=0;entryX=0.5;entryY=0;entryDx=0;entryDy=0;" edge="1" parent="1" source="Wvk4Kf5FQrX0i5HWt4zA-24" target="Wvk4Kf5FQrX0i5HWt4zA-25">
          <mxGeometry relative="1" as="geometry" />
        </mxCell>
        <mxCell id="Wvk4Kf5FQrX0i5HWt4zA-24" value="SET i = 0,&amp;nbsp;&lt;div&gt;&lt;span style=&quot;background-color: transparent; color: light-dark(rgb(0, 0, 0), rgb(255, 255, 255));&quot;&gt;result = 0 AS INTEGER&lt;/span&gt;&lt;/div&gt;" style="rounded=0;whiteSpace=wrap;html=1;" vertex="1" parent="1">
          <mxGeometry x="-360" y="280" width="180" height="50" as="geometry" />
        </mxCell>
        <mxCell id="Wvk4Kf5FQrX0i5HWt4zA-29" value="TRUE" style="edgeStyle=orthogonalEdgeStyle;rounded=0;orthogonalLoop=1;jettySize=auto;html=1;exitX=1;exitY=0.5;exitDx=0;exitDy=0;entryX=0;entryY=0.5;entryDx=0;entryDy=0;" edge="1" parent="1" source="Wvk4Kf5FQrX0i5HWt4zA-25" target="Wvk4Kf5FQrX0i5HWt4zA-28">
          <mxGeometry relative="1" as="geometry" />
        </mxCell>
        <mxCell id="Wvk4Kf5FQrX0i5HWt4zA-34" value="FALSE" style="edgeStyle=orthogonalEdgeStyle;rounded=0;orthogonalLoop=1;jettySize=auto;html=1;exitX=0;exitY=0.5;exitDx=0;exitDy=0;entryX=0.5;entryY=0;entryDx=0;entryDy=0;" edge="1" parent="1" source="Wvk4Kf5FQrX0i5HWt4zA-25" target="Wvk4Kf5FQrX0i5HWt4zA-33">
          <mxGeometry relative="1" as="geometry" />
        </mxCell>
        <mxCell id="Wvk4Kf5FQrX0i5HWt4zA-25" value="i = 1&lt;div&gt;&lt;br&gt;&lt;/div&gt;&lt;div&gt;i &amp;lt; 11&lt;/div&gt;&lt;div&gt;&lt;br&gt;&lt;/div&gt;&lt;div&gt;i += 1&lt;/div&gt;" style="shape=hexagon;perimeter=hexagonPerimeter2;whiteSpace=wrap;html=1;fixedSize=1;" vertex="1" parent="1">
          <mxGeometry x="-330" y="365" width="120" height="80" as="geometry" />
        </mxCell>
        <mxCell id="Wvk4Kf5FQrX0i5HWt4zA-31" style="edgeStyle=orthogonalEdgeStyle;rounded=0;orthogonalLoop=1;jettySize=auto;html=1;exitX=0.5;exitY=1;exitDx=0;exitDy=0;entryX=0.5;entryY=0;entryDx=0;entryDy=0;" edge="1" parent="1" source="Wvk4Kf5FQrX0i5HWt4zA-28" target="Wvk4Kf5FQrX0i5HWt4zA-30">
          <mxGeometry relative="1" as="geometry" />
        </mxCell>
        <mxCell id="Wvk4Kf5FQrX0i5HWt4zA-28" value="i += 1&lt;div&gt;result = 7 * i&lt;/div&gt;" style="rounded=0;whiteSpace=wrap;html=1;" vertex="1" parent="1">
          <mxGeometry x="-125.46000000000001" y="380" width="180" height="50" as="geometry" />
        </mxCell>
        <mxCell id="Wvk4Kf5FQrX0i5HWt4zA-32" style="edgeStyle=orthogonalEdgeStyle;rounded=0;orthogonalLoop=1;jettySize=auto;html=1;exitX=0;exitY=0.5;exitDx=0;exitDy=0;entryX=0.5;entryY=1;entryDx=0;entryDy=0;" edge="1" parent="1" source="Wvk4Kf5FQrX0i5HWt4zA-30" target="Wvk4Kf5FQrX0i5HWt4zA-25">
          <mxGeometry relative="1" as="geometry" />
        </mxCell>
        <mxCell id="Wvk4Kf5FQrX0i5HWt4zA-30" value="&lt;div style=&quot;&quot;&gt;DISPLAY (&quot;7 x &quot; + i + &quot;=&quot; + result&quot;)&lt;/div&gt;" style="shape=parallelogram;perimeter=parallelogramPerimeter;whiteSpace=wrap;html=1;fixedSize=1;align=center;" vertex="1" parent="1">
          <mxGeometry x="-165.46" y="485" width="260" height="60" as="geometry" />
        </mxCell>
        <mxCell id="Wvk4Kf5FQrX0i5HWt4zA-33" value="END Q5" style="ellipse;whiteSpace=wrap;html=1;" vertex="1" parent="1">
          <mxGeometry x="-450.0000000000001" y="475" width="90" height="50" as="geometry" />
        </mxCell>
      </root>
    </mxGraphModel>
  </diagram>
</mxfile>
